<mxfile host="Electron" modified="2024-01-21T22:28:12.100Z" agent="Mozilla/5.0 (Macintosh; Intel Mac OS X 10_15_7) AppleWebKit/537.36 (KHTML, like Gecko) draw.io/22.1.21 Chrome/120.0.6099.109 Electron/28.1.0 Safari/537.36" etag="Jw8CFvxuTqg5PWu7plqa" version="22.1.21" type="device">
  <diagram name="第 1 页" id="hj2dlARdcVPfVpku0lyu">
    <mxGraphModel dx="1826" dy="264" grid="0" gridSize="10" guides="1" tooltips="1" connect="1" arrows="1" fold="1" page="0" pageScale="1" pageWidth="827" pageHeight="1169" background="none" math="0" shadow="0">
      <root>
        <mxCell id="0" />
        <mxCell id="1" parent="0" />
        <mxCell id="zOwHblOYv0V-lIW5b5jD-75" style="edgeStyle=orthogonalEdgeStyle;rounded=0;orthogonalLoop=1;jettySize=auto;html=1;exitX=0.5;exitY=1;exitDx=0;exitDy=0;exitPerimeter=0;entryX=0.5;entryY=0;entryDx=0;entryDy=0;" parent="1" source="UkBSHFEqA8zQ9TWKpc5A-1" target="7KBSIaTTB4g7nGjpy195-20" edge="1">
          <mxGeometry relative="1" as="geometry" />
        </mxCell>
        <mxCell id="UkBSHFEqA8zQ9TWKpc5A-1" value="&lt;b style=&quot;font-size: 14px;&quot;&gt;&lt;br&gt;&lt;br&gt;&lt;/b&gt;&lt;b style=&quot;font-size: 14px;&quot;&gt;Vector D&lt;/b&gt;&lt;b style=&quot;font-size: 14px;&quot;&gt;atabase&lt;br&gt;&lt;/b&gt;" style="strokeWidth=2;html=1;shape=mxgraph.flowchart.database;whiteSpace=wrap;" parent="1" vertex="1">
          <mxGeometry x="513" y="878" width="166" height="130" as="geometry" />
        </mxCell>
        <mxCell id="zOwHblOYv0V-lIW5b5jD-59" style="edgeStyle=orthogonalEdgeStyle;rounded=0;orthogonalLoop=1;jettySize=auto;html=1;exitX=0.5;exitY=0;exitDx=0;exitDy=0;exitPerimeter=0;entryX=0.5;entryY=1;entryDx=0;entryDy=0;fillColor=#1ba1e2;strokeColor=#006EAF;" parent="1" source="7KBSIaTTB4g7nGjpy195-13" target="7KBSIaTTB4g7nGjpy195-14" edge="1">
          <mxGeometry relative="1" as="geometry" />
        </mxCell>
        <mxCell id="7KBSIaTTB4g7nGjpy195-13" value="User" style="shape=umlActor;verticalLabelPosition=bottom;verticalAlign=top;html=1;outlineConnect=0;" parent="1" vertex="1">
          <mxGeometry x="-412.5" y="1192" width="30" height="60" as="geometry" />
        </mxCell>
        <mxCell id="7KBSIaTTB4g7nGjpy195-14" value="Query" style="ellipse;whiteSpace=wrap;html=1;fillColor=#1ba1e2;fontColor=#ffffff;strokeColor=#006EAF;fillStyle=auto;" parent="1" vertex="1">
          <mxGeometry x="-440" y="1068" width="85" height="43" as="geometry" />
        </mxCell>
        <mxCell id="zOwHblOYv0V-lIW5b5jD-76" style="edgeStyle=orthogonalEdgeStyle;rounded=0;orthogonalLoop=1;jettySize=auto;html=1;exitX=0.5;exitY=0;exitDx=0;exitDy=0;fillColor=#1ba1e2;strokeColor=#006EAF;" parent="1" source="7KBSIaTTB4g7nGjpy195-20" target="UkBSHFEqA8zQ9TWKpc5A-1" edge="1">
          <mxGeometry relative="1" as="geometry" />
        </mxCell>
        <mxCell id="zOwHblOYv0V-lIW5b5jD-77" style="edgeStyle=orthogonalEdgeStyle;rounded=0;orthogonalLoop=1;jettySize=auto;html=1;exitX=1;exitY=0.5;exitDx=0;exitDy=0;" parent="1" source="7KBSIaTTB4g7nGjpy195-20" target="7KBSIaTTB4g7nGjpy195-26" edge="1">
          <mxGeometry relative="1" as="geometry" />
        </mxCell>
        <mxCell id="7KBSIaTTB4g7nGjpy195-20" value="Retrieve" style="ellipse;whiteSpace=wrap;html=1;" parent="1" vertex="1">
          <mxGeometry x="536" y="1091" width="120" height="80" as="geometry" />
        </mxCell>
        <mxCell id="zOwHblOYv0V-lIW5b5jD-87" style="edgeStyle=orthogonalEdgeStyle;rounded=0;orthogonalLoop=1;jettySize=auto;html=1;exitX=0.5;exitY=0;exitDx=0;exitDy=0;" parent="1" source="7KBSIaTTB4g7nGjpy195-22" edge="1">
          <mxGeometry relative="1" as="geometry">
            <mxPoint x="688.3333333333335" y="1132.1666666666667" as="targetPoint" />
          </mxGeometry>
        </mxCell>
        <mxCell id="7KBSIaTTB4g7nGjpy195-22" value="Sort ？" style="rounded=0;whiteSpace=wrap;html=1;" parent="1" vertex="1">
          <mxGeometry x="629" y="1237" width="120" height="60" as="geometry" />
        </mxCell>
        <mxCell id="7KBSIaTTB4g7nGjpy195-26" value="Doc" style="shape=note;whiteSpace=wrap;html=1;backgroundOutline=1;darkOpacity=0.05;" parent="1" vertex="1">
          <mxGeometry x="724" y="1081" width="80" height="100" as="geometry" />
        </mxCell>
        <mxCell id="7KBSIaTTB4g7nGjpy195-33" value="+&amp;nbsp;cue words" style="text;html=1;align=center;verticalAlign=middle;resizable=0;points=[];autosize=1;strokeColor=none;fillColor=none;" parent="1" vertex="1">
          <mxGeometry x="805" y="1135" width="83" height="26" as="geometry" />
        </mxCell>
        <mxCell id="zOwHblOYv0V-lIW5b5jD-81" style="edgeStyle=orthogonalEdgeStyle;rounded=0;orthogonalLoop=1;jettySize=auto;html=1;exitX=0;exitY=0;exitDx=80;exitDy=65;exitPerimeter=0;" parent="1" source="7KBSIaTTB4g7nGjpy195-39" target="zOwHblOYv0V-lIW5b5jD-78" edge="1">
          <mxGeometry relative="1" as="geometry" />
        </mxCell>
        <mxCell id="7KBSIaTTB4g7nGjpy195-39" value="Q&amp;amp;A" style="shape=note;whiteSpace=wrap;html=1;backgroundOutline=1;darkOpacity=0.05;" parent="1" vertex="1">
          <mxGeometry x="836" y="943" width="80" height="100" as="geometry" />
        </mxCell>
        <mxCell id="7KBSIaTTB4g7nGjpy195-41" value="Fine-tuning" style="text;html=1;align=center;verticalAlign=middle;resizable=0;points=[];autosize=1;strokeColor=none;fillColor=none;" parent="1" vertex="1">
          <mxGeometry x="932" y="1010" width="78" height="26" as="geometry" />
        </mxCell>
        <mxCell id="zOwHblOYv0V-lIW5b5jD-15" value="" style="group" parent="1" vertex="1" connectable="0">
          <mxGeometry x="-431" y="591" width="109" height="114.5" as="geometry" />
        </mxCell>
        <mxCell id="zOwHblOYv0V-lIW5b5jD-16" value="文档" style="shape=note;whiteSpace=wrap;html=1;backgroundOutline=1;darkOpacity=0.05;" parent="zOwHblOYv0V-lIW5b5jD-15" vertex="1">
          <mxGeometry x="29" width="80" height="100" as="geometry" />
        </mxCell>
        <mxCell id="zOwHblOYv0V-lIW5b5jD-17" value="文档" style="shape=note;whiteSpace=wrap;html=1;backgroundOutline=1;darkOpacity=0.05;" parent="zOwHblOYv0V-lIW5b5jD-15" vertex="1">
          <mxGeometry x="17" y="8" width="80" height="100" as="geometry" />
        </mxCell>
        <mxCell id="zOwHblOYv0V-lIW5b5jD-18" value="&lt;b&gt;&lt;font style=&quot;font-size: 16px;&quot;&gt;Data&lt;/font&gt;&lt;/b&gt;" style="shape=note;whiteSpace=wrap;html=1;backgroundOutline=1;darkOpacity=0.05;" parent="zOwHblOYv0V-lIW5b5jD-15" vertex="1">
          <mxGeometry y="14.5" width="80" height="100" as="geometry" />
        </mxCell>
        <mxCell id="zOwHblOYv0V-lIW5b5jD-25" value="&lt;b&gt;Pre-processing&lt;/b&gt;" style="swimlane;fontStyle=0;childLayout=stackLayout;horizontal=1;startSize=30;horizontalStack=0;resizeParent=1;resizeParentMax=0;resizeLast=0;collapsible=1;marginBottom=0;whiteSpace=wrap;html=1;" parent="1" vertex="1">
          <mxGeometry x="-482" y="893.5" width="183" height="90" as="geometry" />
        </mxCell>
        <mxCell id="zOwHblOYv0V-lIW5b5jD-26" value="Data Cleaning" style="text;strokeColor=none;fillColor=none;align=left;verticalAlign=middle;spacingLeft=4;spacingRight=4;overflow=hidden;points=[[0,0.5],[1,0.5]];portConstraint=eastwest;rotatable=0;whiteSpace=wrap;html=1;" parent="zOwHblOYv0V-lIW5b5jD-25" vertex="1">
          <mxGeometry y="30" width="183" height="30" as="geometry" />
        </mxCell>
        <mxCell id="zOwHblOYv0V-lIW5b5jD-27" value="RecursiveCharacterTextSplitter" style="text;strokeColor=none;fillColor=none;align=left;verticalAlign=middle;spacingLeft=4;spacingRight=4;overflow=hidden;points=[[0,0.5],[1,0.5]];portConstraint=eastwest;rotatable=0;whiteSpace=wrap;html=1;" parent="zOwHblOYv0V-lIW5b5jD-25" vertex="1">
          <mxGeometry y="60" width="183" height="30" as="geometry" />
        </mxCell>
        <mxCell id="zOwHblOYv0V-lIW5b5jD-71" style="edgeStyle=orthogonalEdgeStyle;rounded=0;orthogonalLoop=1;jettySize=auto;html=1;exitX=1;exitY=1;exitDx=0;exitDy=0;exitPerimeter=0;entryX=0;entryY=0.5;entryDx=0;entryDy=0;fillColor=#1ba1e2;strokeColor=#006EAF;" parent="1" source="zOwHblOYv0V-lIW5b5jD-12" target="7KBSIaTTB4g7nGjpy195-20" edge="1">
          <mxGeometry relative="1" as="geometry">
            <Array as="points">
              <mxPoint x="260" y="1033" />
              <mxPoint x="388" y="1033" />
              <mxPoint x="388" y="1131" />
            </Array>
          </mxGeometry>
        </mxCell>
        <mxCell id="zOwHblOYv0V-lIW5b5jD-12" value="&lt;b style=&quot;font-size: 14px;&quot;&gt;Extra &lt;br&gt;features&lt;/b&gt;" style="shape=note;whiteSpace=wrap;html=1;backgroundOutline=1;darkOpacity=0.05;" parent="1" vertex="1">
          <mxGeometry x="175.29577981651374" y="953" width="84.40366972477064" height="100" as="geometry" />
        </mxCell>
        <mxCell id="zOwHblOYv0V-lIW5b5jD-13" value="&lt;b style=&quot;font-size: 14px;&quot;&gt;Q&amp;amp;A&lt;br&gt;Doc&lt;/b&gt;" style="shape=note;whiteSpace=wrap;html=1;backgroundOutline=1;darkOpacity=0.05;" parent="1" vertex="1">
          <mxGeometry x="175.3" y="812" width="84.40366972477064" height="100" as="geometry" />
        </mxCell>
        <mxCell id="zOwHblOYv0V-lIW5b5jD-33" style="edgeStyle=orthogonalEdgeStyle;rounded=0;orthogonalLoop=1;jettySize=auto;html=1;exitX=0;exitY=0;exitDx=84.40366972477064;exitDy=65;exitPerimeter=0;entryX=0;entryY=0.5;entryDx=0;entryDy=0;entryPerimeter=0;" parent="1" source="zOwHblOYv0V-lIW5b5jD-13" target="UkBSHFEqA8zQ9TWKpc5A-1" edge="1">
          <mxGeometry relative="1" as="geometry" />
        </mxCell>
        <mxCell id="zOwHblOYv0V-lIW5b5jD-39" value="&lt;b&gt;Semantic Understanding Enhancement&lt;/b&gt;" style="swimlane;fontStyle=0;childLayout=stackLayout;horizontal=1;startSize=30;horizontalStack=0;resizeParent=1;resizeParentMax=0;resizeLast=0;collapsible=1;marginBottom=0;whiteSpace=wrap;html=1;" parent="1" vertex="1">
          <mxGeometry x="-197" y="925" width="174" height="120" as="geometry" />
        </mxCell>
        <mxCell id="zOwHblOYv0V-lIW5b5jD-40" value="Key Words" style="text;strokeColor=none;fillColor=none;align=left;verticalAlign=middle;spacingLeft=4;spacingRight=4;overflow=hidden;points=[[0,0.5],[1,0.5]];portConstraint=eastwest;rotatable=0;whiteSpace=wrap;html=1;" parent="zOwHblOYv0V-lIW5b5jD-39" vertex="1">
          <mxGeometry y="30" width="174" height="30" as="geometry" />
        </mxCell>
        <mxCell id="zOwHblOYv0V-lIW5b5jD-41" value="Synonym&amp;nbsp;association" style="text;strokeColor=none;fillColor=none;align=left;verticalAlign=middle;spacingLeft=4;spacingRight=4;overflow=hidden;points=[[0,0.5],[1,0.5]];portConstraint=eastwest;rotatable=0;whiteSpace=wrap;html=1;" parent="zOwHblOYv0V-lIW5b5jD-39" vertex="1">
          <mxGeometry y="60" width="174" height="30" as="geometry" />
        </mxCell>
        <mxCell id="zOwHblOYv0V-lIW5b5jD-42" value="Intent Recognition" style="text;strokeColor=none;fillColor=none;align=left;verticalAlign=middle;spacingLeft=4;spacingRight=4;overflow=hidden;points=[[0,0.5],[1,0.5]];portConstraint=eastwest;rotatable=0;whiteSpace=wrap;html=1;" parent="zOwHblOYv0V-lIW5b5jD-39" vertex="1">
          <mxGeometry y="90" width="174" height="30" as="geometry" />
        </mxCell>
        <mxCell id="zOwHblOYv0V-lIW5b5jD-32" style="edgeStyle=orthogonalEdgeStyle;rounded=0;orthogonalLoop=1;jettySize=auto;html=1;exitX=1;exitY=0.5;exitDx=0;exitDy=0;entryX=0;entryY=0.5;entryDx=0;entryDy=0;" parent="1" source="zOwHblOYv0V-lIW5b5jD-26" target="zOwHblOYv0V-lIW5b5jD-41" edge="1">
          <mxGeometry relative="1" as="geometry">
            <mxPoint x="-221.57142857142844" y="998.1428571428573" as="targetPoint" />
            <mxPoint x="-302" y="998.4999999999998" as="sourcePoint" />
          </mxGeometry>
        </mxCell>
        <mxCell id="7KBSIaTTB4g7nGjpy195-12" value="Embedding" style="text;html=1;align=center;verticalAlign=middle;resizable=0;points=[];autosize=1;strokeColor=none;fillColor=none;" parent="1" vertex="1">
          <mxGeometry x="405" y="917" width="79" height="26" as="geometry" />
        </mxCell>
        <mxCell id="zOwHblOYv0V-lIW5b5jD-45" style="edgeStyle=orthogonalEdgeStyle;rounded=0;orthogonalLoop=1;jettySize=auto;html=1;exitX=0;exitY=0;exitDx=84.40366972477064;exitDy=65;exitPerimeter=0;entryX=0;entryY=0.5;entryDx=0;entryDy=0;entryPerimeter=0;" parent="1" source="zOwHblOYv0V-lIW5b5jD-12" target="UkBSHFEqA8zQ9TWKpc5A-1" edge="1">
          <mxGeometry relative="1" as="geometry" />
        </mxCell>
        <mxCell id="zOwHblOYv0V-lIW5b5jD-48" style="edgeStyle=orthogonalEdgeStyle;rounded=0;orthogonalLoop=1;jettySize=auto;html=1;exitX=1;exitY=0.5;exitDx=0;exitDy=0;entryX=0;entryY=0.5;entryDx=0;entryDy=0;entryPerimeter=0;" parent="1" source="zOwHblOYv0V-lIW5b5jD-50" target="zOwHblOYv0V-lIW5b5jD-13" edge="1">
          <mxGeometry relative="1" as="geometry">
            <Array as="points" />
          </mxGeometry>
        </mxCell>
        <mxCell id="zOwHblOYv0V-lIW5b5jD-49" value="" style="edgeStyle=orthogonalEdgeStyle;rounded=0;orthogonalLoop=1;jettySize=auto;html=1;exitX=1;exitY=0.5;exitDx=0;exitDy=0;entryX=0;entryY=0.5;entryDx=0;entryDy=0;entryPerimeter=0;" parent="1" source="zOwHblOYv0V-lIW5b5jD-41" target="zOwHblOYv0V-lIW5b5jD-46" edge="1">
          <mxGeometry relative="1" as="geometry">
            <mxPoint x="-23" y="1000" as="sourcePoint" />
            <mxPoint x="175" y="1000" as="targetPoint" />
          </mxGeometry>
        </mxCell>
        <mxCell id="zOwHblOYv0V-lIW5b5jD-65" style="edgeStyle=orthogonalEdgeStyle;rounded=0;orthogonalLoop=1;jettySize=auto;html=1;exitX=1;exitY=0.25;exitDx=0;exitDy=0;" parent="1" source="zOwHblOYv0V-lIW5b5jD-46" target="zOwHblOYv0V-lIW5b5jD-12" edge="1">
          <mxGeometry relative="1" as="geometry" />
        </mxCell>
        <mxCell id="zOwHblOYv0V-lIW5b5jD-46" value="AutoTokenizer" style="rounded=1;whiteSpace=wrap;html=1;" parent="1" vertex="1">
          <mxGeometry x="19" y="976" width="120" height="60" as="geometry" />
        </mxCell>
        <mxCell id="zOwHblOYv0V-lIW5b5jD-51" value="" style="edgeStyle=orthogonalEdgeStyle;rounded=0;orthogonalLoop=1;jettySize=auto;html=1;exitX=1;exitY=0.5;exitDx=0;exitDy=0;entryX=0;entryY=0.5;entryDx=0;entryDy=0;entryPerimeter=0;" parent="1" source="zOwHblOYv0V-lIW5b5jD-26" target="zOwHblOYv0V-lIW5b5jD-50" edge="1">
          <mxGeometry relative="1" as="geometry">
            <mxPoint x="-299" y="938" as="sourcePoint" />
            <mxPoint x="175" y="862" as="targetPoint" />
            <Array as="points">
              <mxPoint x="-248" y="938" />
              <mxPoint x="-248" y="862" />
            </Array>
          </mxGeometry>
        </mxCell>
        <mxCell id="zOwHblOYv0V-lIW5b5jD-50" value="AutoTokenizer" style="rounded=1;whiteSpace=wrap;html=1;" parent="1" vertex="1">
          <mxGeometry x="-79" y="832" width="120" height="60" as="geometry" />
        </mxCell>
        <mxCell id="zOwHblOYv0V-lIW5b5jD-56" value="[Clean]&lt;br&gt;Drop duplicate &amp;amp; invalid data&lt;br&gt;Handle punctuation" style="shape=callout;whiteSpace=wrap;html=1;perimeter=calloutPerimeter;" parent="1" vertex="1">
          <mxGeometry x="-535.5" y="797" width="123" height="95" as="geometry" />
        </mxCell>
        <mxCell id="zOwHblOYv0V-lIW5b5jD-57" style="edgeStyle=orthogonalEdgeStyle;rounded=0;orthogonalLoop=1;jettySize=auto;html=1;exitX=0.5;exitY=1;exitDx=0;exitDy=0;exitPerimeter=0;entryX=0.5;entryY=0;entryDx=0;entryDy=0;" parent="1" source="zOwHblOYv0V-lIW5b5jD-18" target="zOwHblOYv0V-lIW5b5jD-25" edge="1">
          <mxGeometry relative="1" as="geometry" />
        </mxCell>
        <mxCell id="zOwHblOYv0V-lIW5b5jD-58" style="edgeStyle=orthogonalEdgeStyle;rounded=0;orthogonalLoop=1;jettySize=auto;html=1;exitX=0.5;exitY=0;exitDx=0;exitDy=0;entryX=0.458;entryY=1.022;entryDx=0;entryDy=0;entryPerimeter=0;fillColor=#1ba1e2;strokeColor=#006EAF;" parent="1" source="7KBSIaTTB4g7nGjpy195-14" target="zOwHblOYv0V-lIW5b5jD-27" edge="1">
          <mxGeometry relative="1" as="geometry" />
        </mxCell>
        <mxCell id="zOwHblOYv0V-lIW5b5jD-63" style="edgeStyle=orthogonalEdgeStyle;rounded=0;orthogonalLoop=1;jettySize=auto;html=1;exitX=1;exitY=0.5;exitDx=0;exitDy=0;entryX=0;entryY=0.5;entryDx=0;entryDy=0;fillColor=#1ba1e2;strokeColor=#006EAF;" parent="1" source="zOwHblOYv0V-lIW5b5jD-27" target="zOwHblOYv0V-lIW5b5jD-42" edge="1">
          <mxGeometry relative="1" as="geometry">
            <mxPoint x="-268.9473684210525" y="1032.578947368421" as="targetPoint" />
            <Array as="points">
              <mxPoint x="-272" y="968" />
              <mxPoint x="-272" y="1030" />
            </Array>
          </mxGeometry>
        </mxCell>
        <mxCell id="zOwHblOYv0V-lIW5b5jD-64" style="edgeStyle=orthogonalEdgeStyle;rounded=0;orthogonalLoop=1;jettySize=auto;html=1;exitX=1;exitY=0.5;exitDx=0;exitDy=0;entryX=0;entryY=0.75;entryDx=0;entryDy=0;fillColor=#1ba1e2;strokeColor=#006EAF;" parent="1" source="zOwHblOYv0V-lIW5b5jD-42" target="zOwHblOYv0V-lIW5b5jD-46" edge="1">
          <mxGeometry relative="1" as="geometry" />
        </mxCell>
        <mxCell id="zOwHblOYv0V-lIW5b5jD-69" style="edgeStyle=orthogonalEdgeStyle;rounded=0;orthogonalLoop=1;jettySize=auto;html=1;exitX=1;exitY=0.75;exitDx=0;exitDy=0;entryX=0;entryY=0.5;entryDx=0;entryDy=0;entryPerimeter=0;fillColor=#1ba1e2;strokeColor=#006EAF;" parent="1" source="zOwHblOYv0V-lIW5b5jD-46" target="zOwHblOYv0V-lIW5b5jD-12" edge="1">
          <mxGeometry relative="1" as="geometry" />
        </mxCell>
        <mxCell id="zOwHblOYv0V-lIW5b5jD-79" value="" style="edgeStyle=orthogonalEdgeStyle;rounded=0;orthogonalLoop=1;jettySize=auto;html=1;" parent="1" source="7KBSIaTTB4g7nGjpy195-26" target="zOwHblOYv0V-lIW5b5jD-78" edge="1">
          <mxGeometry relative="1" as="geometry">
            <mxPoint x="1056" y="1128" as="targetPoint" />
            <mxPoint x="815" y="1131" as="sourcePoint" />
          </mxGeometry>
        </mxCell>
        <mxCell id="zOwHblOYv0V-lIW5b5jD-86" value="" style="edgeStyle=orthogonalEdgeStyle;rounded=0;orthogonalLoop=1;jettySize=auto;html=1;" parent="1" source="zOwHblOYv0V-lIW5b5jD-78" target="zOwHblOYv0V-lIW5b5jD-84" edge="1">
          <mxGeometry relative="1" as="geometry" />
        </mxCell>
        <mxCell id="zOwHblOYv0V-lIW5b5jD-78" value="LLM &lt;br&gt;(search assistant)" style="shape=hexagon;perimeter=hexagonPerimeter2;whiteSpace=wrap;html=1;fixedSize=1;" parent="1" vertex="1">
          <mxGeometry x="953" y="1091" width="120" height="80" as="geometry" />
        </mxCell>
        <mxCell id="zOwHblOYv0V-lIW5b5jD-84" value="Answer" style="ellipse;whiteSpace=wrap;html=1;fillColor=#1ba1e2;fontColor=#ffffff;strokeColor=#006EAF;" parent="1" vertex="1">
          <mxGeometry x="1201" y="1091" width="120" height="80" as="geometry" />
        </mxCell>
      </root>
    </mxGraphModel>
  </diagram>
</mxfile>
